<mxfile host="app.diagrams.net" modified="2020-09-03T20:50:14.522Z" agent="5.0 (Windows NT 10.0; Win64; x64) AppleWebKit/537.36 (KHTML, like Gecko) Chrome/84.0.4147.135 Safari/537.36" etag="7A5X-C-nhrOHbYYeB45d" version="13.6.6" type="github">
  <diagram id="FCgTrevILODdkQMxXVcT" name="Page-1">
    <mxGraphModel dx="1108" dy="688" grid="1" gridSize="10" guides="1" tooltips="1" connect="1" arrows="1" fold="1" page="1" pageScale="1" pageWidth="850" pageHeight="1100" math="0" shadow="0">
      <root>
        <mxCell id="0" />
        <mxCell id="1" parent="0" />
        <mxCell id="JG85lPJSVCAKYuWNk2A5-5" value="" style="edgeStyle=orthogonalEdgeStyle;rounded=0;orthogonalLoop=1;jettySize=auto;html=1;" edge="1" parent="1" source="JG85lPJSVCAKYuWNk2A5-6" target="JG85lPJSVCAKYuWNk2A5-54">
          <mxGeometry relative="1" as="geometry" />
        </mxCell>
        <mxCell id="JG85lPJSVCAKYuWNk2A5-6" value="&lt;div style=&quot;box-sizing: border-box ; font-family: &amp;#34;segoe ui&amp;#34; , , &amp;#34;apple color emoji&amp;#34; , &amp;#34;segoe ui emoji&amp;#34; , sans-serif ; font-size: 14px&quot;&gt;&lt;div style=&quot;box-sizing: border-box ; font-family: &amp;#34;segoe ui&amp;#34; , , &amp;#34;apple color emoji&amp;#34; , &amp;#34;segoe ui emoji&amp;#34; , sans-serif ; font-size: 12px&quot;&gt;Parks structure overlapping another Parks structure&lt;/div&gt;&lt;/div&gt;" style="rounded=0;whiteSpace=wrap;html=1;fillColor=#dae8fc;strokeColor=#6c8ebf;" vertex="1" parent="1">
          <mxGeometry x="715" y="160" width="120" height="60" as="geometry" />
        </mxCell>
        <mxCell id="JG85lPJSVCAKYuWNk2A5-54" value="Verify whether all structures are currently in place via the following sources" style="rounded=0;whiteSpace=wrap;html=1;fillColor=#dae8fc;strokeColor=#6c8ebf;" vertex="1" parent="1">
          <mxGeometry x="715" y="280" width="120" height="100" as="geometry" />
        </mxCell>
        <mxCell id="JG85lPJSVCAKYuWNk2A5-55" value="Review structures&#39; status in AMPS and ParksGIS to determine if strcutures are active." style="rounded=0;whiteSpace=wrap;html=1;fillColor=#dae8fc;strokeColor=#6c8ebf;" vertex="1" parent="1">
          <mxGeometry x="470" y="440" width="120" height="140" as="geometry" />
        </mxCell>
        <mxCell id="JG85lPJSVCAKYuWNk2A5-57" value="" style="strokeWidth=2;html=1;shape=mxgraph.flowchart.annotation_2;align=left;labelPosition=right;pointerEvents=1;rotation=90;" vertex="1" parent="1">
          <mxGeometry x="750" y="240" width="50" height="345" as="geometry" />
        </mxCell>
        <mxCell id="JG85lPJSVCAKYuWNk2A5-58" value="&lt;span style=&quot;text-align: left&quot;&gt;Review PIP photos in Parks Property Search to determine whether these structures are still being inspected&lt;/span&gt;&amp;nbsp;&amp;nbsp;" style="rounded=0;whiteSpace=wrap;html=1;fillColor=#dae8fc;strokeColor=#6c8ebf;" vertex="1" parent="1">
          <mxGeometry x="635" y="440" width="120" height="140" as="geometry" />
        </mxCell>
        <mxCell id="JG85lPJSVCAKYuWNk2A5-59" value="&lt;div style=&quot;text-align: left ; box-sizing: border-box&quot;&gt;Consult DoITT orthoimagery, pictometry, and Cyclomedia. Toggle between years to determine whether any of the structures have been removed over time.&amp;nbsp;&amp;nbsp;&lt;/div&gt;&lt;div&gt;&lt;br&gt;&lt;/div&gt;" style="rounded=0;whiteSpace=wrap;html=1;fillColor=#dae8fc;strokeColor=#6c8ebf;" vertex="1" parent="1">
          <mxGeometry x="800" y="440" width="120" height="140" as="geometry" />
        </mxCell>
        <mxCell id="JG85lPJSVCAKYuWNk2A5-60" value="" style="strokeWidth=2;html=1;shape=mxgraph.flowchart.annotation_2;align=left;labelPosition=right;pointerEvents=1;rotation=-90;" vertex="1" parent="1">
          <mxGeometry x="750" y="460" width="50" height="345" as="geometry" />
        </mxCell>
        <mxCell id="JG85lPJSVCAKYuWNk2A5-61" value="&lt;div style=&quot;text-align: left ; box-sizing: border-box&quot;&gt;Consult DoITT building footprints and DoITT historic building footprints to&amp;nbsp;&lt;/div&gt;&lt;span style=&quot;text-align: left&quot;&gt;determine whether any of the structures have been removed over time.&amp;nbsp;&amp;nbsp;&lt;/span&gt;&lt;div&gt;&lt;br&gt;&lt;/div&gt;" style="rounded=0;whiteSpace=wrap;html=1;fillColor=#dae8fc;strokeColor=#6c8ebf;" vertex="1" parent="1">
          <mxGeometry x="960" y="440" width="120" height="140" as="geometry" />
        </mxCell>
        <mxCell id="JG85lPJSVCAKYuWNk2A5-62" value="" style="edgeStyle=orthogonalEdgeStyle;rounded=0;orthogonalLoop=1;jettySize=auto;html=1;" edge="1" parent="1" source="JG85lPJSVCAKYuWNk2A5-64" target="JG85lPJSVCAKYuWNk2A5-66">
          <mxGeometry relative="1" as="geometry" />
        </mxCell>
        <mxCell id="JG85lPJSVCAKYuWNk2A5-63" value="" style="edgeStyle=orthogonalEdgeStyle;rounded=0;orthogonalLoop=1;jettySize=auto;html=1;" edge="1" parent="1" source="JG85lPJSVCAKYuWNk2A5-64" target="JG85lPJSVCAKYuWNk2A5-69">
          <mxGeometry relative="1" as="geometry" />
        </mxCell>
        <mxCell id="JG85lPJSVCAKYuWNk2A5-64" value="&lt;div style=&quot;text-align: left ; box-sizing: border-box&quot;&gt;Did any of these sources provide conclusive evidence?&amp;nbsp;&lt;/div&gt;" style="rounded=0;whiteSpace=wrap;html=1;fillColor=#dae8fc;strokeColor=#6c8ebf;" vertex="1" parent="1">
          <mxGeometry x="715" y="670" width="120" height="135" as="geometry" />
        </mxCell>
        <mxCell id="JG85lPJSVCAKYuWNk2A5-65" value="" style="edgeStyle=orthogonalEdgeStyle;rounded=0;orthogonalLoop=1;jettySize=auto;html=1;" edge="1" parent="1" source="JG85lPJSVCAKYuWNk2A5-66" target="JG85lPJSVCAKYuWNk2A5-67">
          <mxGeometry relative="1" as="geometry" />
        </mxCell>
        <mxCell id="JG85lPJSVCAKYuWNk2A5-66" value="&lt;div style=&quot;text-align: left ; box-sizing: border-box&quot;&gt;No.&lt;/div&gt;" style="rounded=0;whiteSpace=wrap;html=1;fillColor=#dae8fc;strokeColor=#6c8ebf;" vertex="1" parent="1">
          <mxGeometry x="880" y="720" width="60" height="35" as="geometry" />
        </mxCell>
        <mxCell id="JG85lPJSVCAKYuWNk2A5-67" value="&lt;div style=&quot;text-align: left ; box-sizing: border-box&quot;&gt;Site visit required.&amp;nbsp;&lt;/div&gt;" style="rounded=0;whiteSpace=wrap;html=1;fillColor=#dae8fc;strokeColor=#6c8ebf;" vertex="1" parent="1">
          <mxGeometry x="970" y="670" width="120" height="135" as="geometry" />
        </mxCell>
        <mxCell id="JG85lPJSVCAKYuWNk2A5-68" value="" style="edgeStyle=orthogonalEdgeStyle;rounded=0;orthogonalLoop=1;jettySize=auto;html=1;" edge="1" parent="1" source="JG85lPJSVCAKYuWNk2A5-69" target="JG85lPJSVCAKYuWNk2A5-70">
          <mxGeometry relative="1" as="geometry" />
        </mxCell>
        <mxCell id="JG85lPJSVCAKYuWNk2A5-69" value="&lt;div style=&quot;text-align: left ; box-sizing: border-box&quot;&gt;Yes.&lt;/div&gt;" style="rounded=0;whiteSpace=wrap;html=1;fillColor=#dae8fc;strokeColor=#6c8ebf;" vertex="1" parent="1">
          <mxGeometry x="745" y="835" width="60" height="35" as="geometry" />
        </mxCell>
        <mxCell id="JG85lPJSVCAKYuWNk2A5-70" value="&lt;div style=&quot;text-align: left ; box-sizing: border-box&quot;&gt;Which dataset exhibited an inaccuracy?&amp;nbsp;&lt;/div&gt;" style="rounded=0;whiteSpace=wrap;html=1;fillColor=#dae8fc;strokeColor=#6c8ebf;" vertex="1" parent="1">
          <mxGeometry x="715" y="908.3" width="120" height="71.7" as="geometry" />
        </mxCell>
        <mxCell id="JG85lPJSVCAKYuWNk2A5-72" value="" style="strokeWidth=2;html=1;shape=mxgraph.flowchart.annotation_2;align=left;labelPosition=right;pointerEvents=1;rotation=90;" vertex="1" parent="1">
          <mxGeometry x="750" y="890" width="50" height="254.85" as="geometry" />
        </mxCell>
        <mxCell id="JG85lPJSVCAKYuWNk2A5-73" value="" style="edgeStyle=orthogonalEdgeStyle;rounded=0;orthogonalLoop=1;jettySize=auto;html=1;" edge="1" parent="1" source="JG85lPJSVCAKYuWNk2A5-74" target="JG85lPJSVCAKYuWNk2A5-77">
          <mxGeometry relative="1" as="geometry" />
        </mxCell>
        <mxCell id="JG85lPJSVCAKYuWNk2A5-74" value="&lt;div style=&quot;text-align: left ; box-sizing: border-box&quot;&gt;ParksGIS&lt;/div&gt;" style="rounded=0;whiteSpace=wrap;html=1;fillColor=#dae8fc;strokeColor=#6c8ebf;" vertex="1" parent="1">
          <mxGeometry x="860" y="1049.1" width="90" height="61.7" as="geometry" />
        </mxCell>
        <mxCell id="JG85lPJSVCAKYuWNk2A5-75" value="" style="edgeStyle=orthogonalEdgeStyle;rounded=0;orthogonalLoop=1;jettySize=auto;html=1;" edge="1" parent="1" source="JG85lPJSVCAKYuWNk2A5-76" target="JG85lPJSVCAKYuWNk2A5-78">
          <mxGeometry relative="1" as="geometry" />
        </mxCell>
        <mxCell id="JG85lPJSVCAKYuWNk2A5-76" value="&lt;div style=&quot;text-align: left ; box-sizing: border-box&quot;&gt;DoITT&lt;/div&gt;" style="rounded=0;whiteSpace=wrap;html=1;fillColor=#dae8fc;strokeColor=#6c8ebf;" vertex="1" parent="1">
          <mxGeometry x="600" y="1049.1" width="90" height="61.7" as="geometry" />
        </mxCell>
        <mxCell id="JG85lPJSVCAKYuWNk2A5-77" value="&lt;div style=&quot;box-sizing: border-box&quot;&gt;Submit GIS change request&amp;nbsp;&lt;/div&gt;&lt;span&gt;to &lt;/span&gt;update geometry and remove overlap" style="rounded=0;whiteSpace=wrap;html=1;fillColor=#dae8fc;strokeColor=#6c8ebf;align=left;" vertex="1" parent="1">
          <mxGeometry x="860" y="1153.7" width="90" height="76.3" as="geometry" />
        </mxCell>
        <mxCell id="JG85lPJSVCAKYuWNk2A5-78" value="&lt;div style=&quot;text-align: left ; box-sizing: border-box&quot;&gt;Submit CSCL request to update geometry&amp;nbsp;&lt;/div&gt;" style="rounded=0;whiteSpace=wrap;html=1;fillColor=#dae8fc;strokeColor=#6c8ebf;" vertex="1" parent="1">
          <mxGeometry x="600" y="1153.7" width="90" height="76.3" as="geometry" />
        </mxCell>
        <mxCell id="JG85lPJSVCAKYuWNk2A5-79" style="edgeStyle=orthogonalEdgeStyle;rounded=0;orthogonalLoop=1;jettySize=auto;html=1;entryX=1;entryY=0.5;entryDx=0;entryDy=0;" edge="1" parent="1" source="JG85lPJSVCAKYuWNk2A5-80" target="JG85lPJSVCAKYuWNk2A5-78">
          <mxGeometry relative="1" as="geometry" />
        </mxCell>
        <mxCell id="JG85lPJSVCAKYuWNk2A5-80" value="&lt;div style=&quot;text-align: left ; box-sizing: border-box&quot;&gt;Both&lt;/div&gt;" style="rounded=0;whiteSpace=wrap;html=1;fillColor=#dae8fc;strokeColor=#6c8ebf;" vertex="1" parent="1">
          <mxGeometry x="730" y="1049.1" width="90" height="61.7" as="geometry" />
        </mxCell>
        <mxCell id="JG85lPJSVCAKYuWNk2A5-81" value="&lt;b&gt;End&lt;/b&gt;" style="text;html=1;strokeColor=none;fillColor=none;align=center;verticalAlign=middle;whiteSpace=wrap;rounded=0;" vertex="1" parent="1">
          <mxGeometry x="620" y="1234.85" width="40" height="20" as="geometry" />
        </mxCell>
        <mxCell id="JG85lPJSVCAKYuWNk2A5-82" value="&lt;b&gt;End&lt;/b&gt;" style="text;html=1;strokeColor=none;fillColor=none;align=center;verticalAlign=middle;whiteSpace=wrap;rounded=0;" vertex="1" parent="1">
          <mxGeometry x="885" y="1234.85" width="40" height="20" as="geometry" />
        </mxCell>
        <mxCell id="JG85lPJSVCAKYuWNk2A5-83" value="&lt;span style=&quot;text-align: center&quot;&gt;&amp;nbsp;&lt;/span&gt;&lt;span style=&quot;text-align: center&quot;&gt;AMPS obj_status = D and ParksGIS&lt;/span&gt;&lt;div style=&quot;text-align: center ; box-sizing: border-box&quot;&gt;featurestatus = inactive&amp;nbsp;&lt;/div&gt;&lt;div style=&quot;text-align: center ; box-sizing: border-box&quot;&gt;&amp;nbsp;are key indicators&amp;nbsp;&lt;/div&gt;" style="rounded=0;whiteSpace=wrap;html=1;align=left;" vertex="1" parent="1">
          <mxGeometry x="333.56" y="440" width="120" height="140" as="geometry" />
        </mxCell>
      </root>
    </mxGraphModel>
  </diagram>
</mxfile>
